<svg width="106" height="33" viewBox="0 0 106 33" fill="none" xmlns="http://www.w3.org/2000/svg">
<path d="M65.6254 25.5849C59.5311 30.0769 50.6975 32.4736 43.0921 32.4736C32.4279 32.4736 22.8274 28.5294 15.5644 21.9693C14.9937 21.4535 15.505 20.7504 16.1898 21.1521C24.028 25.7127 33.7199 28.4563 43.7311 28.4563C50.483 28.4563 57.9105 27.0594 64.7398 24.1605C65.7715 23.7223 66.6343 24.8362 65.6254 25.5849Z" fill="black"/>
<path d="M68.1592 22.6859C67.3831 21.6908 63.0097 22.2158 61.0467 22.4486C60.4487 22.5217 60.3573 22.0012 60.8961 21.6269C64.3792 19.1755 70.0948 19.883 70.7612 20.7047C71.4278 21.5311 70.5878 27.2603 67.3147 29.9948C66.8125 30.4148 66.3331 30.1911 66.5569 29.634C67.2919 27.7989 68.9398 23.6858 68.1592 22.6859Z" fill="black"/>
<path d="M61.1836 4.32055V1.93756C61.1836 1.57691 61.4575 1.33496 61.7861 1.33496H72.4548C72.7971 1.33496 73.071 1.58148 73.071 1.93756V3.97816C73.0665 4.32055 72.7788 4.76793 72.2676 5.47552L66.7392 13.3686C68.7935 13.3184 70.962 13.6243 72.8246 14.6742C73.2446 14.9116 73.3587 15.2586 73.3906 15.601V18.1437C73.3906 18.4907 73.0071 18.8969 72.6054 18.6869C69.3231 16.9659 64.9634 16.7788 61.3342 18.7052C60.9643 18.9062 60.5764 18.5044 60.5764 18.1574V15.7425C60.5764 15.3545 60.5809 14.6925 60.9689 14.1036L67.3739 4.91858H61.7998C61.4575 4.91858 61.1836 4.67663 61.1836 4.32055Z" fill="black"/>
<path d="M22.266 19.1888H19.0202C18.7097 19.166 18.4632 18.9332 18.4404 18.6365V1.97836C18.4404 1.6451 18.719 1.38032 19.0658 1.38032H22.0926C22.4076 1.39401 22.6587 1.63597 22.6815 1.93727V4.11484H22.7408C23.5305 2.01031 25.0143 1.02881 27.0138 1.02881C29.0452 1.02881 30.3142 2.01031 31.2274 4.11484C32.0125 2.01031 33.7975 1.02881 35.7103 1.02881C37.0706 1.02881 38.5589 1.59032 39.4674 2.85029C40.4945 4.25179 40.2845 6.28783 40.2845 8.0728L40.28 18.5863C40.28 18.9195 40.0014 19.1888 39.6545 19.1888H36.4133C36.0892 19.166 35.8289 18.9059 35.8289 18.5863V9.75733C35.8289 9.0543 35.8928 7.30128 35.7377 6.63479C35.4956 5.51632 34.7699 5.20134 33.8294 5.20134C33.0443 5.20134 32.2225 5.72632 31.8893 6.5663C31.556 7.40628 31.588 8.81234 31.588 9.75733V18.5863C31.588 18.9195 31.3096 19.1888 30.9625 19.1888H27.7213C27.3927 19.166 27.1369 18.9059 27.1369 18.5863L27.1324 9.75733C27.1324 7.89931 27.4383 5.1648 25.1329 5.1648C22.8 5.1648 22.8915 7.83085 22.8915 9.75733V18.5863C22.8915 18.9195 22.6129 19.1888 22.266 19.1888Z" fill="black"/>
<path d="M82.2564 1.02881C87.0726 1.02881 89.6793 5.1648 89.6793 10.4238C89.6793 15.5048 86.7987 19.5359 82.2564 19.5359C77.527 19.5359 74.9521 15.3998 74.9521 10.2458C74.9521 5.0598 77.5589 1.02881 82.2564 1.02881ZM82.2839 4.42982C79.8917 4.42982 79.7411 7.68931 79.7411 9.72081C79.7411 11.7569 79.709 16.1028 82.2564 16.1028C84.7718 16.1028 84.8904 12.5968 84.8904 10.4604C84.8904 9.0543 84.8312 7.37433 84.4065 6.04132C84.0414 4.88177 83.3156 4.42982 82.2839 4.42982Z" fill="black"/>
<path d="M95.9243 19.1888H92.6921C92.368 19.166 92.1079 18.9059 92.1079 18.5863L92.1032 1.92357C92.1307 1.61771 92.4001 1.38032 92.7287 1.38032H95.7371C96.0201 1.39401 96.253 1.58575 96.3169 1.84597V4.39331H96.3762C97.2848 2.11531 98.5583 1.02881 100.8 1.02881C102.256 1.02881 103.676 1.5538 104.589 2.99181C105.438 4.32482 105.438 6.5663 105.438 8.17778V18.6638C105.401 18.956 105.132 19.1888 104.813 19.1888H101.558C101.261 19.166 101.014 18.947 100.982 18.6638V9.61581C100.982 7.79431 101.192 5.12829 98.951 5.12829C98.1612 5.12829 97.4354 5.65785 97.0748 6.4613C96.6182 7.47933 96.5588 8.49278 96.5588 9.61581V18.5863C96.5543 18.9195 96.2712 19.1888 95.9243 19.1888Z" fill="black"/>
<path d="M52.6787 11.232V10.5289C50.3322 10.5289 47.8534 11.0311 47.8534 13.7976C47.8534 15.1991 48.5792 16.1486 49.8255 16.1486C50.7386 16.1486 51.5556 15.5871 52.0716 14.6741C52.7106 13.5511 52.6787 12.4965 52.6787 11.232ZM55.9518 19.1433C55.7373 19.335 55.4269 19.3488 55.185 19.221C54.1076 18.3261 53.9159 17.9107 53.3223 17.0571C51.542 18.8739 50.282 19.4172 47.972 19.4172C45.242 19.4172 43.1147 17.7327 43.1147 14.3591C43.1147 11.725 44.5436 9.9309 46.5752 9.05441C48.3373 8.27833 50.7978 8.14138 52.6787 7.92681V7.50683C52.6787 6.73532 52.7381 5.8223 52.2861 5.15579C51.8889 4.55776 51.1311 4.31124 50.4647 4.31124C49.2275 4.31124 48.1226 4.94579 47.8534 6.26055C47.7986 6.55272 47.5841 6.84032 47.2919 6.85402L44.1419 6.51619C43.8772 6.45685 43.585 6.24229 43.658 5.83599C44.3839 2.01955 47.8305 0.869141 50.9166 0.869141C52.4961 0.869141 54.5595 1.28913 55.8058 2.48519C57.3853 3.95973 57.2347 5.9273 57.2347 8.06835V13.1265C57.2347 14.6467 57.8647 15.3132 58.4581 16.1349C58.6681 16.4271 58.7137 16.7786 58.449 16.9977C57.787 17.5501 56.6092 18.5772 55.9611 19.1525L55.9518 19.1433Z" fill="black"/>
<path d="M10.1272 11.232V10.5289C7.78072 10.5289 5.30187 11.0311 5.30187 13.7976C5.30187 15.1991 6.02771 16.1486 7.27398 16.1486C8.18702 16.1486 9.00417 15.5871 9.52003 14.6741C10.1592 13.5511 10.1272 12.4965 10.1272 11.232ZM13.4004 19.1433C13.1858 19.335 12.8754 19.3488 12.6334 19.221C11.5561 18.3261 11.3643 17.9107 10.7709 17.0571C8.99048 18.8739 7.7305 19.4172 5.42055 19.4172C2.6906 19.4172 0.563263 17.7327 0.563263 14.3591C0.563263 11.725 1.99215 9.9309 4.02362 9.05441C5.78575 8.27833 8.24636 8.14138 10.1272 7.92681V7.50683C10.1272 6.73532 10.1865 5.8223 9.73459 5.15579C9.33742 4.55776 8.57962 4.31124 7.91311 4.31124C6.67595 4.31124 5.57121 4.94579 5.30187 6.26055C5.24708 6.55272 5.03252 6.84032 4.74035 6.85402L1.59042 6.51619C1.32564 6.45685 1.03347 6.24229 1.10651 5.83599C1.83237 2.01955 5.27904 0.869141 8.36506 0.869141C9.94459 0.869141 12.008 1.28913 13.2543 2.48519C14.8338 3.95973 14.6832 5.9273 14.6832 8.06835V13.1265C14.6832 14.6467 15.3132 15.3132 15.9066 16.1349C16.1166 16.4271 16.1623 16.7786 15.8975 16.9977C15.2356 17.5501 14.0578 18.5772 13.4095 19.1525L13.4004 19.1433Z" fill="black"/>
</svg>
