<svg width="32" height="31" viewBox="0 0 32 31" fill="none" xmlns="http://www.w3.org/2000/svg">
<path fill-rule="evenodd" clip-rule="evenodd" d="M31.1875 15.5C31.1875 24.0604 24.2479 31 15.6875 31C7.12711 31 0.1875 24.0604 0.1875 15.5C0.1875 6.93961 7.12711 0 15.6875 0C24.2479 0 31.1875 6.93961 31.1875 15.5Z" fill="#FF6154"/>
<path fill-rule="evenodd" clip-rule="evenodd" d="M17.6204 15.9559V15.956H13.2804V11.306H17.6204V11.3059C18.8894 11.3059 19.9181 12.3468 19.9181 13.6309C19.9181 14.9149 18.8894 15.9559 17.6204 15.9559ZM17.6204 8.20587V8.206L10.2169 8.20587V23.7059H13.2804V19.056H17.6204V19.0559C20.5813 19.0559 22.9816 16.627 22.9816 13.6309C22.9816 10.6347 20.5813 8.20587 17.6204 8.20587Z" fill="white"/>
</svg>
