<svg width="24" height="24" viewBox="0 0 24 24" fill="none" xmlns="http://www.w3.org/2000/svg">
<path d="M23.25 4.14062V19.7656C23.25 21.6594 21.7062 23.2031 19.8125 23.2031H16.375V14.4531H18.6375C18.9562 14.4531 19.225 14.2156 19.2625 13.9031L19.4938 12.0281C19.5188 11.8531 19.4625 11.6719 19.3438 11.5406C19.225 11.4031 19.0562 11.3281 18.875 11.3281H16.375V9.14062C16.375 8.45312 16.9375 7.89062 17.625 7.89062H18.875C19.2188 7.89062 19.5 7.60938 19.5 7.26562V5.15312C19.5 4.83437 19.25 4.56563 18.9312 4.53438C18.8937 4.52813 18.0125 4.45312 16.8937 4.45312C14.1438 4.45312 12.625 6.09063 12.625 9.05938V11.3281H10.125C9.78125 11.3281 9.5 11.6094 9.5 11.9531V13.8281C9.5 14.1719 9.78125 14.4531 10.125 14.4531H12.625V23.2031H4.1875C2.29375 23.2031 0.75 21.6594 0.75 19.7656V4.14062C0.75 2.24688 2.29375 0.703125 4.1875 0.703125H19.8125C21.7062 0.703125 23.25 2.24688 23.25 4.14062Z" fill="black"/>
</svg>
