<svg width="24" height="24" viewBox="0 0 24 24" fill="none" xmlns="http://www.w3.org/2000/svg">
<path d="M7.3125 0.078125C3.34938 0.078125 0.125 3.3025 0.125 7.26562V16.6406C0.125 20.6038 3.34938 23.8281 7.3125 23.8281H16.6875C20.6506 23.8281 23.875 20.6038 23.875 16.6406V7.26562C23.875 3.3025 20.6506 0.078125 16.6875 0.078125H7.3125ZM18.25 4.45312C18.9406 4.45312 19.5 5.0125 19.5 5.70312C19.5 6.39313 18.9406 6.95312 18.25 6.95312C17.5594 6.95312 17 6.39313 17 5.70312C17 5.0125 17.5594 4.45312 18.25 4.45312ZM12 5.70312C15.4462 5.70312 18.25 8.50688 18.25 11.9531C18.25 15.3994 15.4462 18.2031 12 18.2031C8.55375 18.2031 5.75 15.3994 5.75 11.9531C5.75 8.50688 8.55375 5.70312 12 5.70312ZM12 7.57812C11.4255 7.57812 10.8566 7.69129 10.3258 7.91115C9.79496 8.13102 9.31266 8.45328 8.90641 8.85953C8.50015 9.26579 8.17789 9.74809 7.95803 10.2789C7.73816 10.8097 7.625 11.3786 7.625 11.9531C7.625 12.5277 7.73816 13.0966 7.95803 13.6274C8.17789 14.1582 8.50015 14.6405 8.90641 15.0467C9.31266 15.453 9.79496 15.7752 10.3258 15.9951C10.8566 16.215 11.4255 16.3281 12 16.3281C12.5745 16.3281 13.1434 16.215 13.6742 15.9951C14.205 15.7752 14.6873 15.453 15.0936 15.0467C15.4998 14.6405 15.8221 14.1582 16.042 13.6274C16.2618 13.0966 16.375 12.5277 16.375 11.9531C16.375 11.3786 16.2618 10.8097 16.042 10.2789C15.8221 9.74809 15.4998 9.26579 15.0936 8.85953C14.6873 8.45328 14.205 8.13102 13.6742 7.91115C13.1434 7.69129 12.5745 7.57812 12 7.57812Z" fill="black"/>
</svg>
