<svg width="15" height="14" viewBox="0 0 15 14" fill="none" xmlns="http://www.w3.org/2000/svg">
<g clip-path="url(#clip0_2_30)">
<path d="M12.3125 4.06113H2.5125C1.546 4.06113 0.762497 4.84463 0.762497 5.81113V11.7222C0.762497 12.6887 1.546 13.4722 2.5125 13.4722H12.3125C13.279 13.4722 14.0625 12.6887 14.0625 11.7222V5.81113C14.0625 4.84463 13.279 4.06113 12.3125 4.06113Z" stroke="#121212" stroke-width="0.7"/>
<path d="M12.4681 2.35001H2.35694C2.24955 2.35001 2.1625 2.43706 2.1625 2.54445C2.1625 2.65184 2.24955 2.7389 2.35694 2.7389H12.4681C12.5754 2.7389 12.6625 2.65184 12.6625 2.54445C12.6625 2.43706 12.5754 2.35001 12.4681 2.35001Z" stroke="#121212" stroke-width="0.388889"/>
<path d="M10.9125 0.794434H3.91249C3.8051 0.794434 3.71804 0.881489 3.71804 0.988878C3.71804 1.09627 3.8051 1.18332 3.91249 1.18332H10.9125C11.0199 1.18332 11.107 1.09627 11.107 0.988878C11.107 0.881489 11.0199 0.794434 10.9125 0.794434Z" stroke="#121212" stroke-width="0.388889"/>
</g>
<defs>
<clipPath id="clip0_2_30">
<rect width="14.7" height="14" fill="white" transform="translate(0.212502)"/>
</clipPath>
</defs>
</svg>
