<svg width="24" height="24" viewBox="0 0 24 24" fill="none" xmlns="http://www.w3.org/2000/svg">
<path d="M19.8125 0.703125H4.1875C2.2925 0.703125 0.75 2.24563 0.75 4.14062V19.7656C0.75 21.6606 2.2925 23.2031 4.1875 23.2031H19.8125C21.7075 23.2031 23.25 21.6606 23.25 19.7656V4.14062C23.25 2.24563 21.7075 0.703125 19.8125 0.703125ZM8.25 18.2031C8.25 18.5487 7.97062 18.8281 7.625 18.8281H5.75C5.40438 18.8281 5.125 18.5487 5.125 18.2031V10.0781C5.125 9.7325 5.40438 9.45312 5.75 9.45312H7.625C7.97062 9.45312 8.25 9.7325 8.25 10.0781V18.2031ZM6.6875 8.20312C5.82438 8.20312 5.125 7.50375 5.125 6.64062C5.125 5.7775 5.82438 5.07812 6.6875 5.07812C7.55062 5.07812 8.25 5.7775 8.25 6.64062C8.25 7.50375 7.55062 8.20312 6.6875 8.20312ZM18.875 18.2031C18.875 18.5487 18.5956 18.8281 18.25 18.8281H16.375C16.0294 18.8281 15.75 18.5487 15.75 18.2031V13.5156C15.75 12.6538 15.0494 11.9531 14.1875 11.9531C13.3256 11.9531 12.625 12.6538 12.625 13.5156V18.2031C12.625 18.5487 12.3456 18.8281 12 18.8281H10.125C9.77938 18.8281 9.5 18.5487 9.5 18.2031V10.0781C9.5 9.7325 9.77938 9.45312 10.125 9.45312H12C12.3456 9.45312 12.625 9.7325 12.625 10.0781V10.4163C13.2894 9.81938 14.1637 9.45312 15.125 9.45312C17.1931 9.45312 18.875 11.135 18.875 13.2031V18.2031Z" fill="black"/>
</svg>
