<svg width="146" height="51" viewBox="0 0 146 51" fill="none" xmlns="http://www.w3.org/2000/svg">
<rect y="0.5" width="105.469" height="50" rx="25" fill="#1A1A1A"/>
<path d="M20.62 32.68C19.7133 32.68 18.9 32.52 18.18 32.2C17.46 31.8667 16.8867 31.42 16.46 30.86C16.0467 30.3 15.82 29.68 15.78 29H18.6C18.6533 29.4267 18.86 29.78 19.22 30.06C19.5933 30.34 20.0533 30.48 20.6 30.48C21.1333 30.48 21.5467 30.3733 21.84 30.16C22.1467 29.9467 22.3 29.6733 22.3 29.34C22.3 28.98 22.1133 28.7133 21.74 28.54C21.38 28.3533 20.8 28.1533 20 27.94C19.1733 27.74 18.4933 27.5333 17.96 27.32C17.44 27.1067 16.9867 26.78 16.6 26.34C16.2267 25.9 16.04 25.3067 16.04 24.56C16.04 23.9467 16.2133 23.3867 16.56 22.88C16.92 22.3733 17.4267 21.9733 18.08 21.68C18.7467 21.3867 19.5267 21.24 20.42 21.24C21.74 21.24 22.7933 21.5733 23.58 22.24C24.3667 22.8933 24.8 23.78 24.88 24.9H22.2C22.16 24.46 21.9733 24.1133 21.64 23.86C21.32 23.5933 20.8867 23.46 20.34 23.46C19.8333 23.46 19.44 23.5533 19.16 23.74C18.8933 23.9267 18.76 24.1867 18.76 24.52C18.76 24.8933 18.9467 25.18 19.32 25.38C19.6933 25.5667 20.2733 25.76 21.06 25.96C21.86 26.16 22.52 26.3667 23.04 26.58C23.56 26.7933 24.0067 27.1267 24.38 27.58C24.7667 28.02 24.9667 28.6067 24.98 29.34C24.98 29.98 24.8 30.5533 24.44 31.06C24.0933 31.5667 23.5867 31.9667 22.92 32.26C22.2667 32.54 21.5 32.68 20.62 32.68ZM30.0784 17.7V32.5H27.2784V17.7H30.0784ZM34.2648 20.1C33.7715 20.1 33.3582 19.9467 33.0248 19.64C32.7048 19.32 32.5448 18.9267 32.5448 18.46C32.5448 17.9933 32.7048 17.6067 33.0248 17.3C33.3582 16.98 33.7715 16.82 34.2648 16.82C34.7582 16.82 35.1648 16.98 35.4848 17.3C35.8182 17.6067 35.9848 17.9933 35.9848 18.46C35.9848 18.9267 35.8182 19.32 35.4848 19.64C35.1648 19.9467 34.7582 20.1 34.2648 20.1ZM35.6448 21.42V32.5H32.8448V21.42H35.6448ZM37.6912 26.92C37.6912 25.8 37.9112 24.8067 38.3512 23.94C38.8046 23.0733 39.4179 22.4067 40.1913 21.94C40.9646 21.4733 41.8246 21.24 42.7713 21.24C43.4913 21.24 44.1779 21.4 44.8313 21.72C45.4846 22.0267 46.0046 22.44 46.3913 22.96V17.7H49.2313V32.5H46.3913V30.86C46.0446 31.4067 45.5579 31.8467 44.9313 32.18C44.3046 32.5133 43.5779 32.68 42.7513 32.68C41.8179 32.68 40.9646 32.44 40.1913 31.96C39.4179 31.48 38.8046 30.8067 38.3512 29.94C37.9112 29.06 37.6912 28.0533 37.6912 26.92ZM46.4113 26.96C46.4113 26.28 46.2779 25.7 46.0113 25.22C45.7446 24.7267 45.3846 24.3533 44.9313 24.1C44.4779 23.8333 43.9913 23.7 43.4713 23.7C42.9513 23.7 42.4713 23.8267 42.0312 24.08C41.5913 24.3333 41.2313 24.7067 40.9513 25.2C40.6846 25.68 40.5513 26.2533 40.5513 26.92C40.5513 27.5867 40.6846 28.1733 40.9513 28.68C41.2313 29.1733 41.5913 29.5533 42.0312 29.82C42.4846 30.0867 42.9646 30.22 43.4713 30.22C43.9913 30.22 44.4779 30.0933 44.9313 29.84C45.3846 29.5733 45.7446 29.2 46.0113 28.72C46.2779 28.2267 46.4113 27.64 46.4113 26.96ZM51.2459 26.92C51.2459 25.8 51.4659 24.8067 51.9059 23.94C52.3593 23.0733 52.9726 22.4067 53.7459 21.94C54.5193 21.4733 55.3793 21.24 56.3259 21.24C57.0459 21.24 57.7326 21.4 58.3859 21.72C59.0393 22.0267 59.5593 22.44 59.9459 22.96V17.7H62.7859V32.5H59.9459V30.86C59.5993 31.4067 59.1126 31.8467 58.4859 32.18C57.8593 32.5133 57.1326 32.68 56.3059 32.68C55.3726 32.68 54.5193 32.44 53.7459 31.96C52.9726 31.48 52.3593 30.8067 51.9059 29.94C51.4659 29.06 51.2459 28.0533 51.2459 26.92ZM59.9659 26.96C59.9659 26.28 59.8326 25.7 59.5659 25.22C59.2993 24.7267 58.9393 24.3533 58.4859 24.1C58.0326 23.8333 57.5459 23.7 57.0259 23.7C56.5059 23.7 56.0259 23.8267 55.5859 24.08C55.1459 24.3333 54.7859 24.7067 54.5059 25.2C54.2393 25.68 54.1059 26.2533 54.1059 26.92C54.1059 27.5867 54.2393 28.1733 54.5059 28.68C54.7859 29.1733 55.1459 29.5533 55.5859 29.82C56.0393 30.0867 56.5193 30.22 57.0259 30.22C57.5459 30.22 58.0326 30.0933 58.4859 29.84C58.9393 29.5733 59.2993 29.2 59.5659 28.72C59.8326 28.2267 59.9659 27.64 59.9659 26.96ZM64.8006 26.92C64.8006 25.8 65.0206 24.8067 65.4606 23.94C65.914 23.0733 66.5273 22.4067 67.3006 21.94C68.074 21.4733 68.934 21.24 69.8806 21.24C70.6006 21.24 71.2873 21.4 71.9406 21.72C72.594 22.0267 73.114 22.44 73.5006 22.96V17.7H76.3406V32.5H73.5006V30.86C73.154 31.4067 72.6673 31.8467 72.0406 32.18C71.414 32.5133 70.6873 32.68 69.8606 32.68C68.9273 32.68 68.074 32.44 67.3006 31.96C66.5273 31.48 65.914 30.8067 65.4606 29.94C65.0206 29.06 64.8006 28.0533 64.8006 26.92ZM73.5206 26.96C73.5206 26.28 73.3873 25.7 73.1206 25.22C72.854 24.7267 72.494 24.3533 72.0406 24.1C71.5873 23.8333 71.1006 23.7 70.5806 23.7C70.0606 23.7 69.5806 23.8267 69.1406 24.08C68.7006 24.3333 68.3406 24.7067 68.0606 25.2C67.794 25.68 67.6606 26.2533 67.6606 26.92C67.6606 27.5867 67.794 28.1733 68.0606 28.68C68.3406 29.1733 68.7006 29.5533 69.1406 29.82C69.594 30.0867 70.074 30.22 70.5806 30.22C71.1006 30.22 71.5873 30.0933 72.0406 29.84C72.494 29.5733 72.854 29.2 73.1206 28.72C73.3873 28.2267 73.5206 27.64 73.5206 26.96ZM83.9953 32.68C82.9286 32.68 81.9686 32.4467 81.1153 31.98C80.262 31.5 79.5886 30.8267 79.0953 29.96C78.6153 29.0933 78.3753 28.0933 78.3753 26.96C78.3753 25.8267 78.622 24.8267 79.1153 23.96C79.622 23.0933 80.3086 22.4267 81.1753 21.96C82.042 21.48 83.0086 21.24 84.0753 21.24C85.142 21.24 86.1086 21.48 86.9753 21.96C87.842 22.4267 88.522 23.0933 89.0153 23.96C89.522 24.8267 89.7753 25.8267 89.7753 26.96C89.7753 28.0933 89.5153 29.0933 88.9953 29.96C88.4886 30.8267 87.7953 31.5 86.9153 31.98C86.0486 32.4467 85.0753 32.68 83.9953 32.68ZM83.9953 30.24C84.502 30.24 84.9753 30.12 85.4153 29.88C85.8686 29.6267 86.2286 29.2533 86.4953 28.76C86.762 28.2667 86.8953 27.6667 86.8953 26.96C86.8953 25.9067 86.6153 25.1 86.0553 24.54C85.5086 23.9667 84.8353 23.68 84.0353 23.68C83.2353 23.68 82.562 23.9667 82.0153 24.54C81.482 25.1 81.2153 25.9067 81.2153 26.96C81.2153 28.0133 81.4753 28.8267 81.9953 29.4C82.5286 29.96 83.1953 30.24 83.9953 30.24Z" fill="white"/>
<rect x="95.4688" y="0.5" width="50" height="50" rx="25" fill="#FFC83D"/>
<g clip-path="url(#clip0_2_530)">
<path d="M112.391 17.6568C112.961 17.5326 113.459 17.9975 113.459 18.5801V25.8738C113.459 26.2091 113.731 26.4805 114.066 26.4805H120.658C121.269 26.4805 121.741 27.0273 121.562 27.6117C120.579 30.822 117.595 33.165 114.066 33.165C109.739 33.165 106.219 29.6446 106.219 25.3178C106.219 21.5653 108.867 18.4259 112.391 17.6568Z" fill="#131313"/>
<path d="M133.969 20H125.469C125.055 20 124.719 20.3358 124.719 20.75C124.719 21.1642 125.055 21.5 125.469 21.5H133.969C134.383 21.5 134.719 21.1642 134.719 20.75C134.719 20.3358 134.383 20 133.969 20Z" fill="#131313"/>
<path d="M133.969 24.5H125.469C125.055 24.5 124.719 24.8358 124.719 25.25C124.719 25.6642 125.055 26 125.469 26H133.969C134.383 26 134.719 25.6642 134.719 25.25C134.719 24.8358 134.383 24.5 133.969 24.5Z" fill="#131313"/>
<path d="M130.969 29H125.469C125.055 29 124.719 29.3358 124.719 29.75C124.719 30.1642 125.055 30.5 125.469 30.5H130.969C131.383 30.5 131.719 30.1642 131.719 29.75C131.719 29.3358 131.383 29 130.969 29Z" fill="#131313"/>
</g>
<defs>
<clipPath id="clip0_2_530">
<rect width="28.5" height="16" fill="white" transform="translate(106.219 17.5)"/>
</clipPath>
</defs>
</svg>
