<svg width="161" height="27" viewBox="0 0 161 27" fill="none" xmlns="http://www.w3.org/2000/svg">
<g clip-path="url(#clip0_2_371)">
<path d="M0.5 25.4476H7.60454V16.5321H9.27619L14.326 25.4476H21.8484L15.8931 15.139C18.5051 14.1291 20.3857 12.144 20.3857 8.59171V8.45241C20.3857 3.19366 16.7638 0.546875 10.2513 0.546875H0.5V25.4476ZM7.60454 11.9002V5.9101H9.93789C12.2364 5.9101 13.4901 6.7111 13.4901 8.73101V8.87033C13.4901 10.8902 12.3061 11.9002 9.90306 11.9002H7.60454Z" fill="black"/>
<path d="M32.2571 25.8652C37.7596 25.8652 40.9287 23.5318 41.486 19.4223H35.6353C35.3915 20.6413 34.5208 21.5815 32.466 21.5815C30.2371 21.5815 28.8441 20.1885 28.67 17.7855H41.486V16.1487C41.486 9.60136 37.2024 6.74561 32.2222 6.74561C26.7198 6.74561 22.3665 10.4372 22.3665 16.2879V16.5665C22.3665 22.5218 26.5456 25.8652 32.2571 25.8652ZM28.7396 14.268C29.0531 12.074 30.3416 10.8551 32.2222 10.8551C34.2421 10.8551 35.3218 12.074 35.4263 14.268H28.7396Z" fill="black"/>
<path d="M51.4651 25.8652C56.5149 25.8652 59.7189 23.9149 59.7189 19.5964C59.7189 15.6959 57.281 14.3725 52.2312 13.7457C50.0024 13.467 49.1665 13.1188 49.1665 12.2481C49.1665 11.4123 49.8631 10.8203 51.2213 10.8203C52.6491 10.8203 53.3109 11.4123 53.5546 12.6312H59.1965C58.7785 8.27796 55.6443 6.74561 51.1516 6.74561C46.9376 6.74561 43.3506 8.69587 43.3506 12.7357C43.3506 16.5318 45.4054 17.9597 50.281 18.5865C52.7885 18.9348 53.6591 19.3527 53.6591 20.2233C53.6591 21.1288 52.9626 21.7208 51.4303 21.7208C49.6541 21.7208 49.0621 20.9895 48.8531 19.6662H43.1068C43.2461 23.7059 46.276 25.8652 51.4651 25.8652Z" fill="black"/>
<path d="M69.4927 25.8656C70.9555 25.8656 72.1395 25.552 72.9405 25.3432V20.6068C72.3834 20.8158 71.861 20.9202 71.1644 20.9202C69.9804 20.9202 69.3186 20.3282 69.3186 19.0048V11.4824H72.9057V7.23355H69.3186V3.4375H63.0847V7.23355H60.8907V11.4824H63.0847V19.5968C63.0847 23.8804 65.3832 25.8656 69.4927 25.8656Z" fill="black"/>
<path d="M75.7849 25.4474H82.0188V16.8105C82.0188 13.885 84.1084 12.701 87.9044 12.8055V6.98951C85.0835 6.95469 83.168 8.13878 82.0188 10.8552V7.23329H75.7849V25.4474Z" fill="black"/>
<path d="M99.4266 25.8652C104.929 25.8652 108.098 23.5318 108.656 19.4223H102.805C102.561 20.6413 101.69 21.5815 99.6356 21.5815C97.4068 21.5815 96.0136 20.1885 95.8395 17.7855H108.656V16.1487C108.656 9.60136 104.372 6.74561 99.3919 6.74561C93.8893 6.74561 89.536 10.4372 89.536 16.2879V16.5665C89.536 22.5218 93.7151 25.8652 99.4266 25.8652ZM95.9093 14.268C96.2226 12.074 97.5113 10.8551 99.3919 10.8551C101.412 10.8551 102.491 12.074 102.596 14.268H95.9093Z" fill="black"/>
<path d="M116.615 25.8652C119.54 25.8652 121.142 24.6463 122.013 23.3228V25.4473H128.072V13.6412C128.072 8.80036 124.869 6.74561 119.854 6.74561C114.873 6.74561 111.426 8.90483 111.147 13.2929H116.998C117.137 12.1437 117.764 11.1337 119.47 11.1337C121.455 11.1337 121.873 12.283 121.873 14.0243V14.4422H120.132C114.072 14.4422 110.451 16.1138 110.451 20.3974C110.451 24.2632 113.341 25.8652 116.615 25.8652ZM118.774 21.6512C117.311 21.6512 116.615 20.9895 116.615 19.9447C116.615 18.4472 117.729 17.9597 120.237 17.9597H121.873V19.074C121.873 20.6413 120.55 21.6512 118.774 21.6512Z" fill="black"/>
<path d="M131.629 25.4473H137.863V14.8949C137.863 12.9098 138.978 11.8302 140.649 11.8302C142.078 11.8302 142.983 12.7357 142.983 14.5815V25.4473H149.146V14.8949C149.146 12.9098 150.261 11.8302 151.933 11.8302C153.361 11.8302 154.266 12.7357 154.266 14.5815V25.4473H160.5V13.5367C160.5 8.97448 157.993 6.74561 154.545 6.74561C152.246 6.74561 150.088 7.65109 148.52 9.77548C147.649 7.79039 145.978 6.74561 143.575 6.74561C140.754 6.74561 138.839 8.27796 137.863 10.0193V7.23317H131.629V25.4473Z" fill="black"/>
</g>
<defs>
<clipPath id="clip0_2_371">
<rect width="160" height="26.25" fill="white" transform="translate(0.5 0.546875)"/>
</clipPath>
</defs>
</svg>
