<svg width="151" height="31" viewBox="0 0 151 31" fill="none" xmlns="http://www.w3.org/2000/svg">
<g clip-path="url(#clip0_2_360)">
<path fill-rule="evenodd" clip-rule="evenodd" d="M28.385 24.2421V12.2402H31.8559V8.80689H28.385V2.02333H23.8735V8.80689H22.124C21.6684 5.33111 19.094 0.671875 11.5023 0.671875C2.59858 0.671875 0.955681 6.26687 0.955681 9.44147C0.955681 15.711 5.23522 16.7425 9.66744 17.8149L12.6103 18.5292C15.5148 19.2435 17.5782 19.8382 17.5782 22.0601C17.5782 25.0761 14.5595 25.7505 11.846 25.7505C6.83975 25.7505 6.07542 22.7345 6.03705 21.1473H0.535149C0.535149 24.6799 2.25482 30.6719 12.2665 30.6719C14.6738 30.6719 23.081 29.9177 23.081 21.3467C23.081 16.2284 19.6417 14.6411 15.8969 13.6884L9.20935 11.9823C8.06292 11.704 6.30488 11.2281 6.30488 9.00627C6.30488 6.42722 8.90312 5.59413 11.0817 5.59413C14.9587 5.59413 16.1077 7.40285 16.5 8.80863H16.4335V12.2419H23.8735V25.5944C23.8735 28.3321 23.6764 30.1578 28.5044 30.1578H29.2226C30.1004 30.1578 30.9781 30.1179 31.8559 30.0781V25.871C31.4567 25.9108 31.0575 25.9507 30.6992 25.9507C28.4251 25.949 28.385 25.474 28.385 24.2421Z" fill="#0F0F0F"/>
<path fill-rule="evenodd" clip-rule="evenodd" d="M112.511 25.7987V14.3672C112.511 9.16744 107.062 8.25426 104.078 8.25426C100.016 8.25426 95.8116 9.05628 94.7762 14.4818C93.4637 9.4721 88.7379 8.25426 85.7403 8.25426C79.8472 8.25426 76.7864 11.5641 75.8864 16.5415V1.42676H70.3175V16.6145C69.1566 9.77336 64.2843 8.25426 60.6303 8.25426C53.4843 8.25426 51.3287 13.0917 50.7157 16.4719C49.5097 9.75473 44.6829 8.25426 41.0553 8.25426C31.7876 8.25426 30.9125 16.3921 30.9125 18.9322C30.9125 27.6259 35.4868 30.4833 41.4532 30.4833C45.0721 30.4833 49.2887 28.8175 50.7607 23.7356H45.0322C44.5953 25.2437 43.0041 26.0381 41.4532 26.0381C36.9579 26.0381 36.6399 22.466 36.4809 20.8782H50.5736C51.2197 28.0554 55.5314 30.4833 61.0274 30.4833C64.6329 30.4833 68.8305 28.8293 70.3171 23.7917V29.9275H75.8849V22.9362C76.6483 26.7119 79.113 30.4833 85.3818 30.4833C90.3583 30.4833 92.8439 27.984 94.0404 25.6155C94.6187 29.0499 97.5299 30.4833 100.378 30.4833C104.158 30.4833 105.948 28.7377 107.221 27.4265C107.341 28.618 107.419 28.9346 107.737 29.9275H113.743V29.0941C113.067 28.8565 112.511 28.2997 112.511 25.7987Z" fill="#0F0F0F"/>
<path fill-rule="evenodd" clip-rule="evenodd" d="M36.5729 17.3004C36.8916 14.5289 38.2874 12.8661 40.9179 12.8661C42.7108 12.8661 44.9036 13.8951 45.2221 17.3004H36.5729ZM60.5324 12.8661C62.3261 12.8661 64.5188 13.8951 64.8374 17.3004H56.1883C56.5068 14.5289 57.9018 12.8661 60.5324 12.8661ZM70.3199 23.7514H64.5978C64.1588 25.2552 62.5645 26.0472 61.0112 26.0472C56.5068 26.0472 56.1883 22.4854 56.0288 20.902H70.3199V23.7514ZM107.139 22.366C107.139 24.9395 104.628 26.5211 102.155 26.5211C101.08 26.5211 99.5663 25.9279 99.5663 23.9891C99.5663 21.6932 101.279 21.1779 103.352 20.8225C105.664 20.4653 106.58 20.11 107.138 19.6741V22.366H107.139ZM105.185 16.8637L100.164 17.616C97.2792 18.0341 95.0004 19.5006 94.2504 22.2476H89.4401C89.4401 23.2377 88.4829 25.9288 85.6538 25.9288C81.4297 25.9288 81.3496 21.3768 81.3496 19.0809C81.3496 16.4694 82.265 12.9853 85.7734 12.9853C88.3649 12.8262 89.242 15.0036 89.4804 16.3898H95.1413C95.1216 16.1515 95.094 15.9139 95.0592 15.6773H100.044C100.204 14.4493 100.681 12.7476 103.472 12.7476C104.907 12.7476 107.139 12.8661 107.139 15.2017C107.139 16.3898 106.062 16.7452 105.185 16.8637Z" fill="#F4F4F4"/>
<path fill-rule="evenodd" clip-rule="evenodd" d="M150.346 19.8685C150.346 10.2074 144.564 8.21924 140.378 8.21924C131.089 8.21924 130.211 16.3699 130.211 18.914C130.211 19.2727 130.22 19.6161 130.237 19.9552C127.195 16.092 118.567 17.2522 118.567 14.5016C118.567 13.587 118.948 12.4336 121.85 12.4336C124.753 12.4336 125.211 13.865 125.441 15.2165H130.673C130.252 9.25286 125.516 8.21924 121.546 8.21924C115.205 8.21924 113.336 12.1955 113.336 15.2964C113.336 23.2091 125.938 20.5443 125.938 24.0837C125.938 24.8793 125.288 26.2699 122.538 26.2699C119.178 26.2699 118.11 24.9583 118.11 23.1691H112.611C112.764 28.8157 117.765 30.4834 122.387 30.4834C125.274 30.4834 130.282 29.5586 131.15 24.7357C132.787 28.9525 136.408 30.4834 140.777 30.4834C144.406 30.4834 148.632 28.8148 150.106 23.725H144.367C143.926 25.2355 142.332 26.0311 140.777 26.0311C136.272 26.0311 135.954 22.4534 135.794 20.8631H150.346V19.8685H150.346Z" fill="#0F0F0F"/>
<path fill-rule="evenodd" clip-rule="evenodd" d="M136.007 17.2759C136.326 14.4457 137.726 12.7476 140.366 12.7476C142.165 12.7476 144.365 13.7984 144.686 17.2759H136.007Z" fill="#F4F4F4"/>
</g>
<defs>
<clipPath id="clip0_2_360">
<rect width="150" height="30" fill="white" transform="translate(0.5 0.671875)"/>
</clipPath>
</defs>
</svg>
