<svg width="36" height="36" viewBox="0 0 36 36" fill="none" xmlns="http://www.w3.org/2000/svg">
<g clip-path="url(#clip0_2_357)">
<path d="M17.9129 21.1544L17.914 21.1518L17.9149 21.1492C17.9305 21.1024 17.953 21.0585 17.9807 21.0274C18.0079 20.9968 18.0366 20.9819 18.0674 20.9819C18.0951 20.9819 18.1148 20.9936 18.1389 21.0246C18.1516 21.0409 18.164 21.0607 18.1785 21.0849C18.1807 21.0886 18.1831 21.0925 18.1854 21.0965C18.197 21.1158 18.2097 21.1372 18.2238 21.1586L22.4008 30.5053C22.4008 30.5054 22.4008 30.5055 22.4009 30.5056C22.5065 30.7519 22.6919 30.9845 23.0002 30.9845C23.3079 30.9845 23.4932 30.7526 23.599 30.5067L32.6187 12.365C33.2379 14.0362 33.5634 15.805 33.5634 17.6717C33.495 26.1709 26.5315 33.1679 18.0332 33.1679C9.53457 33.1679 2.57134 26.1707 2.57134 17.6718C2.57134 15.8051 2.89686 14.0363 3.51606 12.365L12.5359 30.5067C12.6416 30.7526 12.8269 30.9845 13.1347 30.9845C13.4429 30.9845 13.6283 30.7519 13.7339 30.5056C13.734 30.5055 13.734 30.5054 13.7341 30.5053L17.9129 21.1544ZM23.1215 25.183L23.1197 25.1866L23.1184 25.1903C23.1028 25.2372 23.0803 25.2811 23.0526 25.3121C23.0254 25.3428 22.9967 25.3576 22.9659 25.3576C22.9382 25.3576 22.9185 25.346 22.8944 25.315C22.8817 25.2987 22.8693 25.2788 22.8548 25.2547C22.8526 25.2509 22.8502 25.247 22.8479 25.243C22.8364 25.2238 22.8237 25.2025 22.8096 25.1811L19.8315 18.4034C19.8315 18.4034 19.8315 18.4033 19.8315 18.4033C19.7768 18.276 19.7097 18.1955 19.6222 18.1491C19.5366 18.1038 19.4392 18.0955 19.3349 18.0955H16.5944C16.4901 18.0955 16.3927 18.1038 16.3071 18.1491C16.2195 18.1955 16.1524 18.276 16.0978 18.4034L16.0977 18.4036L13.2203 25.1861L13.2201 25.1861L13.2187 25.1903C13.2031 25.2372 13.1805 25.2811 13.1528 25.3121C13.1256 25.3428 13.0969 25.3576 13.0661 25.3576C13.0384 25.3576 13.0187 25.346 12.9946 25.315C12.9819 25.2987 12.9695 25.2788 12.955 25.2547C12.9528 25.2509 12.9505 25.2471 12.9481 25.2431C12.9364 25.2235 12.9234 25.2017 12.9091 25.18L5.04608 9.31729C6.43316 7.19469 8.28634 5.40682 10.5395 4.15073L16.1998 16.733C16.2384 16.8468 16.3066 16.9255 16.3906 16.9749C16.4742 17.0241 16.5703 17.0425 16.6629 17.0425H19.4034C19.5077 17.0425 19.6051 17.0343 19.6907 16.989C19.7781 16.9426 19.8452 16.8623 19.8998 16.7351C19.8999 16.735 19.8999 16.7348 19.9 16.7346L25.5609 4.15111C27.7813 5.40731 29.6674 7.19517 31.0544 9.31718L23.1215 25.183ZM18.0332 14.0876C18.0055 14.0876 17.9857 14.076 17.9616 14.045C17.9489 14.0287 17.9365 14.0088 17.9221 13.9847C17.9198 13.9809 17.9175 13.977 17.9151 13.9731C17.9036 13.9538 17.8909 13.9324 17.8767 13.911L13.0386 3.00813C14.5926 2.44141 16.2794 2.14147 18.0332 2.14147C19.7869 2.14147 21.4737 2.44141 23.0277 3.00813L18.1882 13.9141C18.1529 13.9846 18.1308 14.0279 18.1067 14.0553C18.0958 14.0679 18.0859 14.0752 18.0758 14.0799C18.0657 14.0845 18.0525 14.0876 18.0332 14.0876ZM18.0332 34.8553C27.5527 34.8553 35.2167 27.1913 35.2167 17.6718C35.2167 8.15224 27.5527 0.488281 18.0332 0.488281C8.51358 0.488281 0.84964 8.15224 0.84964 17.6718C0.84964 27.1913 8.51358 34.8553 18.0332 34.8553Z" fill="#0F0F0F" stroke="#0F0F0F" stroke-width="0.111702"/>
</g>
<defs>
<clipPath id="clip0_2_357">
<rect width="35" height="35" fill="white" transform="translate(0.5 0.171875)"/>
</clipPath>
</defs>
</svg>
