<svg width="17" height="16" viewBox="0 0 17 16" fill="none" xmlns="http://www.w3.org/2000/svg">
<g clip-path="url(#clip0_2_40)">
<path d="M9.8974 14.8364V10.0525C9.8974 9.81157 10.0928 9.61615 10.3338 9.61615H15.1176C15.3586 9.61615 15.554 9.81157 15.554 10.0525V14.8364C15.554 15.0774 15.3586 15.2727 15.1176 15.2727H10.3338C10.0928 15.2727 9.8974 15.0774 9.8974 14.8364Z" stroke="#121212" stroke-width="0.727273"/>
<path d="M1.00853 14.8364V10.0525C1.00853 9.81157 1.2039 9.61615 1.44489 9.61615H6.22873C6.46973 9.61615 6.6651 9.81157 6.6651 10.0525V14.8364C6.6651 15.0774 6.46973 15.2727 6.22873 15.2727H1.44489C1.2039 15.2727 1.00853 15.0774 1.00853 14.8364Z" stroke="#121212" stroke-width="0.727273"/>
<path d="M9.8974 5.94747V1.16363C9.8974 0.922632 10.0928 0.727264 10.3338 0.727264H15.1176C15.3586 0.727264 15.554 0.922632 15.554 1.16363V5.94747C15.554 6.18846 15.3586 6.38383 15.1176 6.38383H10.3338C10.0928 6.38383 9.8974 6.18846 9.8974 5.94747Z" stroke="#121212" stroke-width="0.727273"/>
<path d="M1.00853 5.94747V1.16363C1.00853 0.922632 1.2039 0.727264 1.44489 0.727264H6.22873C6.46973 0.727264 6.6651 0.922632 6.6651 1.16363V5.94747C6.6651 6.18846 6.46973 6.38383 6.22873 6.38383H1.44489C1.2039 6.38383 1.00853 6.18846 1.00853 5.94747Z" stroke="#121212" stroke-width="0.727273"/>
</g>
<defs>
<clipPath id="clip0_2_40">
<rect width="16" height="16" fill="white" transform="translate(0.28125)"/>
</clipPath>
</defs>
</svg>
