<svg width="106" height="36" viewBox="0 0 106 36" fill="none" xmlns="http://www.w3.org/2000/svg">
<g clip-path="url(#clip0_2_368)">
<path d="M7.36127 26.4865H19.7059V30.6566H0.5V27.4985L0.561864 27.4345L12.5185 14.3225H0.910551V10.1471H19.3797V13.3105L19.3179 13.3745L7.36127 26.4865ZM33.8671 13.9284C30.594 13.9284 28.2488 15.6433 27.5514 18.5298H39.9298C39.3337 15.6007 37.1403 13.9284 33.8671 13.9284ZM33.8671 9.75296C37.1066 9.75296 39.9636 10.8767 41.9094 12.9218C44.0185 15.132 44.9633 18.3114 44.5753 21.8744L44.5021 22.5455H27.6301C28.4512 25.3362 30.9145 26.87 34.6095 26.87C37.0109 26.87 39.0637 26.1191 40.8859 24.5746L41.6339 23.9462L43.771 27.6902L43.2761 28.0843C40.7059 30.1081 37.9783 31.0507 34.6939 31.0507C27.5514 31.0507 22.7542 26.7582 22.7542 20.3672C22.7486 14.216 27.4277 9.75296 33.8671 9.75296ZM48.9845 27.6476H53.6805V0.171875H48.9845V27.6476ZM57.4767 34.2143H62.1727V6.73856H57.4767V34.2143ZM83.184 18.5298C82.5878 15.6007 80.3945 13.9284 77.1213 13.9284C73.8481 13.9284 71.503 15.6433 70.8055 18.5298H83.184ZM77.1213 9.75296C80.3608 9.75296 83.2177 10.8767 85.1636 12.9218C87.2726 15.132 88.2175 18.3168 87.8294 21.8744L87.7563 22.5455H70.8843C71.7054 25.3362 74.1687 26.87 77.8636 26.87C80.2651 26.87 82.3179 26.1191 84.1401 24.5746L84.888 23.9462L87.0195 27.6902L86.5246 28.0843C83.9545 30.1081 81.2324 31.0507 77.9424 31.0507C70.7999 31.0507 66.0027 26.7582 66.0027 20.3672C66.0027 14.216 70.6762 9.75296 77.1213 9.75296ZM104.73 9.75296C101.569 9.6784 99.0718 10.5784 97.0978 12.5011V10.1417H92.4017V30.6566H97.0978V18.173C99.128 14.4556 103.43 14.1627 104.701 14.1627L105.5 14.1734V9.77427L104.73 9.75296Z" fill="#212322"/>
</g>
<defs>
<clipPath id="clip0_2_368">
<rect width="105" height="35" fill="white" transform="translate(0.5 0.171875)"/>
</clipPath>
</defs>
</svg>
